<svg width="60" height="37" viewBox="0 0 60 37" fill="none" xmlns="http://www.w3.org/2000/svg">
<path fill-rule="evenodd" clip-rule="evenodd" d="M33.7257 0.138378C34.8026 -0.173729 35.9638 0.0489594 36.8488 0.737302L58.4488 17.5373C59.4131 18.2873 59.9165 19.4857 59.7772 20.6993C59.6378 21.9129 58.8759 22.966 57.7667 23.4779L42.1667 30.6779C40.4116 31.4879 38.3322 30.7218 37.5222 28.9667C36.7121 27.2117 37.4782 25.1322 39.2333 24.3222L49.6118 19.5321L36.3591 9.22446L27.1931 34.6856C26.8314 35.6902 26.0309 36.4749 25.0192 36.8163C24.0074 37.1577 22.8951 37.0186 21.9986 36.4385L1.59865 23.2385C0.527546 22.5455 -0.0816048 21.3245 0.00883377 20.0519C0.0992724 18.7794 0.874972 17.6568 2.03332 17.1222L17.6333 9.92218C19.3884 9.11214 21.4678 9.87825 22.2779 11.6333C23.0879 13.3884 22.3218 15.4679 20.5667 16.2779L10.7376 20.8144L22.1002 28.1666L31.4069 2.31452C31.7867 1.25961 32.6489 0.450485 33.7257 0.138378Z" fill="white"/>
</svg>
