<svg width="89" height="60" viewBox="0 0 89 60" fill="none" xmlns="http://www.w3.org/2000/svg">
<path d="M47.6474 19.059H4.76474C2.14413 19.059 0 21.2031 0 23.8237C0 26.4443 2.14413 28.5884 4.76474 28.5884H47.6474C50.268 28.5884 52.4122 26.4443 52.4122 23.8237C52.4122 21.2031 50.268 19.059 47.6474 19.059ZM47.6474 0H4.76474C2.14413 0 0 2.14413 0 4.76474C0 7.38535 2.14413 9.52948 4.76474 9.52948H47.6474C50.268 9.52948 52.4122 7.38535 52.4122 4.76474C52.4122 2.14413 50.268 0 47.6474 0ZM4.76474 47.6474H28.5884C31.2091 47.6474 33.3532 45.5033 33.3532 42.8827C33.3532 40.2621 31.2091 38.1179 28.5884 38.1179H4.76474C2.14413 38.1179 0 40.2621 0 42.8827C0 45.5033 2.14413 47.6474 4.76474 47.6474ZM80.4288 31.6379L63.5617 48.5051L56.8434 41.7868C55.9525 40.8959 54.7441 40.3954 53.4842 40.3954C52.2243 40.3954 51.016 40.8959 50.1251 41.7868C49.2342 42.6777 48.7337 43.886 48.7337 45.1459C48.7337 46.4058 49.2342 47.6142 50.1251 48.5051L60.2263 58.6063C62.0846 60.4646 65.0864 60.4646 66.9446 58.6063L87.1471 38.4038C87.5888 37.963 87.9393 37.4394 88.1784 36.863C88.4175 36.2866 88.5405 35.6687 88.5405 35.0447C88.5405 34.4206 88.4175 33.8027 88.1784 33.2263C87.9393 32.6499 87.5888 32.1263 87.1471 31.6855C86.7124 31.2355 86.1923 30.8768 85.6172 30.6303C85.0421 30.3838 84.4237 30.2546 83.798 30.2501C83.1723 30.2457 82.5521 30.3661 81.9735 30.6044C81.395 30.8427 80.8699 31.1941 80.4288 31.6379Z" fill="#0192E4"/>
</svg>
