<svg width="60" height="60" viewBox="0 0 60 60" fill="none" xmlns="http://www.w3.org/2000/svg">
<path d="M59.0392 14.891C59.3438 14.5871 59.5854 14.2261 59.7503 13.8286C59.9151 13.4312 60 13.0051 60 12.5748C60 12.1445 59.9151 11.7185 59.7503 11.321C59.5854 10.9236 59.3438 10.5625 59.0392 10.2586L49.7414 0.960805C49.4375 0.656233 49.0764 0.414598 48.679 0.24973C48.2815 0.0848626 47.8555 0 47.4252 0C46.9949 0 46.5688 0.0848626 46.1714 0.24973C45.7739 0.414598 45.4129 0.656233 45.109 0.960805L30.3574 15.7124L17.5771 2.93206C15.0144 0.369428 10.8419 0.369428 8.27929 2.93206L2.03697 9.17438C-0.525669 11.737 -0.525669 15.9095 2.03697 18.4722L14.8173 31.2525L0 46.0698V60H13.9302L28.7804 45.1498L41.5607 57.9302C44.6819 61.0513 48.8872 59.9014 50.8585 57.9302L57.1008 51.6879C59.6634 49.1252 59.6634 44.9527 57.1008 42.3901L44.3205 29.6098L59.0392 14.891ZM6.70228 13.8068L12.9117 7.56452L17.0842 11.737L13.2074 15.6467L17.8399 20.2791L21.7496 16.3695L25.6921 20.312L19.4498 26.5543L6.70228 13.8068ZM43.5977 38.2505L39.688 42.1601L44.3205 46.7926L48.2301 42.8829L52.4026 47.0554L46.1603 53.2977L33.38 40.5174L39.6223 34.2751L43.5977 38.2505ZM11.2033 53.4291H6.57086V48.7967L38.1439 17.2237L42.4149 21.4947L42.7763 21.8561L11.2033 53.4291ZM42.7763 12.5584L47.4088 7.92592L52.0412 12.5584L47.4088 17.1908L42.7763 12.5584Z" fill="#0192E4"/>
</svg>
