<svg width="204" height="48" viewBox="0 0 204 48" fill="none" xmlns="http://www.w3.org/2000/svg">
<path d="M43.156 22.512H41.5V30H38.422V22.512H37.306V19.956H38.422V19.668C38.422 18.432 38.776 17.496 39.484 16.86C40.192 16.212 41.23 15.888 42.598 15.888C42.826 15.888 42.994 15.894 43.102 15.906V18.516C42.514 18.48 42.1 18.564 41.86 18.768C41.62 18.972 41.5 19.338 41.5 19.866V19.956H43.156V22.512ZM46.1503 18.912C45.6103 18.912 45.1663 18.756 44.8183 18.444C44.4823 18.12 44.3143 17.724 44.3143 17.256C44.3143 16.776 44.4823 16.38 44.8183 16.068C45.1663 15.744 45.6103 15.582 46.1503 15.582C46.6783 15.582 47.1103 15.744 47.4463 16.068C47.7943 16.38 47.9683 16.776 47.9683 17.256C47.9683 17.724 47.7943 18.12 47.4463 18.444C47.1103 18.756 46.6783 18.912 46.1503 18.912ZM47.6803 19.956V30H44.6023V19.956H47.6803ZM53.9969 30.144C53.1209 30.144 52.3409 29.994 51.6569 29.694C50.9729 29.394 50.4329 28.986 50.0369 28.47C49.6409 27.942 49.4189 27.354 49.3709 26.706H52.4129C52.4489 27.054 52.6109 27.336 52.8989 27.552C53.1869 27.768 53.5409 27.876 53.9609 27.876C54.3449 27.876 54.6389 27.804 54.8429 27.66C55.0589 27.504 55.1669 27.306 55.1669 27.066C55.1669 26.778 55.0169 26.568 54.7169 26.436C54.4169 26.292 53.9309 26.136 53.2589 25.968C52.5389 25.8 51.9389 25.626 51.4589 25.446C50.9789 25.254 50.5649 24.96 50.2169 24.564C49.8689 24.156 49.6949 23.61 49.6949 22.926C49.6949 22.35 49.8509 21.828 50.1629 21.36C50.4869 20.88 50.9549 20.502 51.5669 20.226C52.1909 19.95 52.9289 19.812 53.7809 19.812C55.0409 19.812 56.0309 20.124 56.7509 20.748C57.4829 21.372 57.9029 22.2 58.0109 23.232H55.1669C55.1189 22.884 54.9629 22.608 54.6989 22.404C54.4469 22.2 54.1109 22.098 53.6909 22.098C53.3309 22.098 53.0549 22.17 52.8629 22.314C52.6709 22.446 52.5749 22.632 52.5749 22.872C52.5749 23.16 52.7249 23.376 53.0249 23.52C53.3369 23.664 53.8169 23.808 54.4649 23.952C55.2089 24.144 55.8149 24.336 56.2829 24.528C56.7509 24.708 57.1589 25.008 57.5069 25.428C57.8669 25.836 58.0529 26.388 58.0649 27.084C58.0649 27.672 57.8969 28.2 57.5609 28.668C57.2369 29.124 56.7629 29.484 56.1389 29.748C55.5269 30.012 54.8129 30.144 53.9969 30.144ZM59.336 24.978C59.336 23.934 59.546 23.022 59.966 22.242C60.398 21.462 60.992 20.862 61.748 20.442C62.516 20.022 63.392 19.812 64.376 19.812C65.636 19.812 66.686 20.142 67.526 20.802C68.378 21.462 68.936 22.392 69.2 23.592H65.924C65.648 22.824 65.114 22.44 64.322 22.44C63.758 22.44 63.308 22.662 62.972 23.106C62.636 23.538 62.468 24.162 62.468 24.978C62.468 25.794 62.636 26.424 62.972 26.868C63.308 27.3 63.758 27.516 64.322 27.516C65.114 27.516 65.648 27.132 65.924 26.364H69.2C68.936 27.54 68.378 28.464 67.526 29.136C66.674 29.808 65.624 30.144 64.376 30.144C63.392 30.144 62.516 29.934 61.748 29.514C60.992 29.094 60.398 28.494 59.966 27.714C59.546 26.934 59.336 26.022 59.336 24.978ZM77.0205 19.848C78.1725 19.848 79.0965 20.232 79.7925 21C80.4885 21.756 80.8365 22.8 80.8365 24.132V30H77.7765V24.546C77.7765 23.874 77.6025 23.352 77.2545 22.98C76.9065 22.608 76.4385 22.422 75.8505 22.422C75.2625 22.422 74.7945 22.608 74.4465 22.98C74.0985 23.352 73.9245 23.874 73.9245 24.546V30H70.8465V16.68H73.9245V21.306C74.2365 20.862 74.6625 20.508 75.2025 20.244C75.7425 19.98 76.3485 19.848 77.0205 19.848ZM92.4434 24.816C92.4434 25.104 92.4254 25.404 92.3894 25.716H85.4234C85.4714 26.34 85.6694 26.82 86.0174 27.156C86.3774 27.48 86.8154 27.642 87.3314 27.642C88.0994 27.642 88.6334 27.318 88.9334 26.67H92.2094C92.0414 27.33 91.7354 27.924 91.2914 28.452C90.8594 28.98 90.3134 29.394 89.6534 29.694C88.9934 29.994 88.2554 30.144 87.4394 30.144C86.4554 30.144 85.5794 29.934 84.8114 29.514C84.0434 29.094 83.4434 28.494 83.0114 27.714C82.5794 26.934 82.3634 26.022 82.3634 24.978C82.3634 23.934 82.5734 23.022 82.9934 22.242C83.4254 21.462 84.0254 20.862 84.7934 20.442C85.5614 20.022 86.4434 19.812 87.4394 19.812C88.4114 19.812 89.2754 20.016 90.0314 20.424C90.7874 20.832 91.3754 21.414 91.7954 22.17C92.2274 22.926 92.4434 23.808 92.4434 24.816ZM89.2934 24.006C89.2934 23.478 89.1134 23.058 88.7534 22.746C88.3934 22.434 87.9434 22.278 87.4034 22.278C86.8874 22.278 86.4494 22.428 86.0894 22.728C85.7414 23.028 85.5254 23.454 85.4414 24.006H89.2934ZM97.1452 21.63C97.5052 21.078 97.9552 20.646 98.4952 20.334C99.0352 20.01 99.6352 19.848 100.295 19.848V23.106H99.4492C98.6812 23.106 98.1052 23.274 97.7212 23.61C97.3372 23.934 97.1452 24.51 97.1452 25.338V30H94.0672V19.956H97.1452V21.63ZM101.424 25.032C101.424 24.024 101.628 23.142 102.036 22.386C102.444 21.618 103.002 21.024 103.71 20.604C104.43 20.184 105.228 19.974 106.104 19.974C106.968 19.974 107.718 20.16 108.354 20.532C108.99 20.904 109.464 21.372 109.776 21.936V20.136H111.432V30H109.776V28.164C109.452 28.74 108.966 29.22 108.318 29.604C107.682 29.976 106.938 30.162 106.086 30.162C105.21 30.162 104.418 29.946 103.71 29.514C103.002 29.082 102.444 28.476 102.036 27.696C101.628 26.916 101.424 26.028 101.424 25.032ZM109.776 25.05C109.776 24.306 109.626 23.658 109.326 23.106C109.026 22.554 108.618 22.134 108.102 21.846C107.598 21.546 107.04 21.396 106.428 21.396C105.816 21.396 105.258 21.54 104.754 21.828C104.25 22.116 103.848 22.536 103.548 23.088C103.248 23.64 103.098 24.288 103.098 25.032C103.098 25.788 103.248 26.448 103.548 27.012C103.848 27.564 104.25 27.99 104.754 28.29C105.258 28.578 105.816 28.722 106.428 28.722C107.04 28.722 107.598 28.578 108.102 28.29C108.618 27.99 109.026 27.564 109.326 27.012C109.626 26.448 109.776 25.794 109.776 25.05ZM118.214 21.486H116.144V30H114.506V21.486H113.228V20.136H114.506V19.434C114.506 18.33 114.788 17.526 115.352 17.022C115.928 16.506 116.846 16.248 118.106 16.248V17.616C117.386 17.616 116.876 17.76 116.576 18.048C116.288 18.324 116.144 18.786 116.144 19.434V20.136H118.214V21.486ZM119.512 25.032C119.512 24.024 119.716 23.142 120.124 22.386C120.532 21.618 121.09 21.024 121.798 20.604C122.518 20.184 123.316 19.974 124.192 19.974C125.056 19.974 125.806 20.16 126.442 20.532C127.078 20.904 127.552 21.372 127.864 21.936V20.136H129.52V30H127.864V28.164C127.54 28.74 127.054 29.22 126.406 29.604C125.77 29.976 125.026 30.162 124.174 30.162C123.298 30.162 122.506 29.946 121.798 29.514C121.09 29.082 120.532 28.476 120.124 27.696C119.716 26.916 119.512 26.028 119.512 25.032ZM127.864 25.05C127.864 24.306 127.714 23.658 127.414 23.106C127.114 22.554 126.706 22.134 126.19 21.846C125.686 21.546 125.128 21.396 124.516 21.396C123.904 21.396 123.346 21.54 122.842 21.828C122.338 22.116 121.936 22.536 121.636 23.088C121.336 23.64 121.186 24.288 121.186 25.032C121.186 25.788 121.336 26.448 121.636 27.012C121.936 27.564 122.338 27.99 122.842 28.29C123.346 28.578 123.904 28.722 124.516 28.722C125.128 28.722 125.686 28.578 126.19 28.29C126.706 27.99 127.114 27.564 127.414 27.012C127.714 26.448 127.864 25.794 127.864 25.05ZM141.288 24.69C141.288 25.002 141.27 25.332 141.234 25.68H133.35C133.41 26.652 133.74 27.414 134.34 27.966C134.952 28.506 135.69 28.776 136.554 28.776C137.262 28.776 137.85 28.614 138.318 28.29C138.798 27.954 139.134 27.51 139.326 26.958H141.09C140.826 27.906 140.298 28.68 139.506 29.28C138.714 29.868 137.73 30.162 136.554 30.162C135.618 30.162 134.778 29.952 134.034 29.532C133.302 29.112 132.726 28.518 132.306 27.75C131.886 26.97 131.676 26.07 131.676 25.05C131.676 24.03 131.88 23.136 132.288 22.368C132.696 21.6 133.266 21.012 133.998 20.604C134.742 20.184 135.594 19.974 136.554 19.974C137.49 19.974 138.318 20.178 139.038 20.586C139.758 20.994 140.31 21.558 140.694 22.278C141.09 22.986 141.288 23.79 141.288 24.69ZM139.596 24.348C139.596 23.724 139.458 23.19 139.182 22.746C138.906 22.29 138.528 21.948 138.048 21.72C137.58 21.48 137.058 21.36 136.482 21.36C135.654 21.36 134.946 21.624 134.358 22.152C133.782 22.68 133.452 23.412 133.368 24.348H139.596ZM145.088 16.68V30H143.45V16.68H145.088Z" fill="#F2F2F2"/>
<path fill-rule="evenodd" clip-rule="evenodd" d="M0 14.7564C0 13.2341 1.23407 12 2.75637 12H23.4291V17.5127H9.41083L24 32.1019L20.1019 36L5.51274 21.4108V35.4291H0V14.7564Z" fill="#0192E4"/>
</svg>
