<svg width="101" height="15" viewBox="0 0 101 15" fill="none" xmlns="http://www.w3.org/2000/svg">
<path d="M0.28125 14V12.1982L1.6084 11.917V6.61719H0.237305V4.49023H1.6084V4.07715C1.6084 2.7998 2.00391 1.81836 2.79492 1.13281C3.5918 0.447266 4.71973 0.104492 6.17871 0.104492C6.68262 0.104492 7.1748 0.148438 7.65527 0.236328C8.13574 0.324219 8.69238 0.453125 9.3252 0.623047L8.91211 3.03125C8.44922 2.9082 8.02734 2.81445 7.64648 2.75C7.27148 2.68555 6.89648 2.65332 6.52148 2.65332C5.91797 2.65332 5.46094 2.7793 5.15039 3.03125C4.8457 3.27734 4.69336 3.62598 4.69336 4.07715V4.49023H10.6699V11.917L11.9883 12.1982V14H6.46875V12.1982L7.58496 11.917V6.61719H4.69336V11.917L5.81836 12.1982V14H0.28125Z" fill="#EDEEF1"/>
<path d="M16.998 14.1846C16.248 14.1846 15.5479 14.1172 14.8975 13.9824C14.2529 13.8418 13.6699 13.6514 13.1484 13.4111L13.1133 10.4492H15.1963L15.5479 11.8291C15.6709 11.9053 15.8291 11.9727 16.0225 12.0312C16.2158 12.084 16.4473 12.1104 16.7168 12.1104C17.2148 12.1104 17.5576 12.043 17.7451 11.9082C17.9326 11.7734 18.0264 11.6035 18.0264 11.3984C18.0264 11.1992 17.918 11.0176 17.7012 10.8535C17.4902 10.6836 17.0361 10.5342 16.3389 10.4053C15.2256 10.1885 14.4053 9.81934 13.8779 9.29785C13.3506 8.77051 13.0869 8.11426 13.0869 7.3291C13.0869 6.7959 13.21 6.30371 13.4561 5.85254C13.7021 5.40137 14.1035 5.03809 14.6602 4.7627C15.2227 4.48145 15.9727 4.34082 16.9102 4.34082C17.625 4.34082 18.3047 4.40234 18.9492 4.52539C19.5996 4.64844 20.1328 4.80371 20.5488 4.99121L20.54 7.85645H18.4658L18.2021 6.62598C17.9268 6.43848 17.584 6.34473 17.1738 6.34473C16.7812 6.34473 16.4941 6.41504 16.3125 6.55566C16.1309 6.69629 16.04 6.87793 16.04 7.10059C16.04 7.29395 16.1396 7.48438 16.3389 7.67188C16.5381 7.85938 16.9775 8.0293 17.6572 8.18164C18.7412 8.42188 19.5557 8.75586 20.1006 9.18359C20.6514 9.61133 20.9268 10.2617 20.9268 11.1348C20.9268 12.0723 20.5898 12.8164 19.916 13.3672C19.248 13.9121 18.2754 14.1846 16.998 14.1846Z" fill="#EDEEF1"/>
<path d="M26.5166 14.1846C25.5732 14.1846 24.7617 13.9766 24.082 13.5605C23.4023 13.1445 22.8809 12.5732 22.5176 11.8467C22.1543 11.1201 21.9727 10.291 21.9727 9.35938V9.15723C21.9727 8.20215 22.1602 7.36133 22.5352 6.63477C22.916 5.9082 23.4434 5.33984 24.1172 4.92969C24.7969 4.51953 25.5879 4.31445 26.4902 4.31445C27.3984 4.31445 28.1748 4.45215 28.8193 4.72754C29.4697 5.00293 29.9824 5.29004 30.3574 5.58887L30.3047 8.58594H28.0107L27.6416 6.86328C27.542 6.76367 27.4072 6.68164 27.2373 6.61719C27.0732 6.55273 26.9355 6.52051 26.8242 6.52051C26.168 6.52051 25.708 6.73438 25.4443 7.16211C25.1865 7.58984 25.0576 8.25488 25.0576 9.15723V9.35938C25.0576 9.98633 25.1309 10.4814 25.2773 10.8447C25.4297 11.2021 25.6201 11.457 25.8486 11.6094C26.0771 11.7617 26.3115 11.8379 26.5518 11.8379C26.9209 11.8379 27.2051 11.7471 27.4043 11.5654C27.6094 11.3779 27.7676 11.1055 27.8789 10.748H30.4629L30.498 10.8008C30.3574 11.5566 30.1377 12.1865 29.8389 12.6904C29.54 13.1885 29.124 13.5635 28.5908 13.8154C28.0635 14.0615 27.3721 14.1846 26.5166 14.1846Z" fill="#EDEEF1"/>
<path d="M31.4473 14V12.1982L32.5635 11.917V2.38086L31.2275 2.09961V0.289062H35.6309V5.66797C35.9121 5.24023 36.2637 4.90918 36.6855 4.6748C37.1074 4.43457 37.5967 4.31445 38.1533 4.31445C39.0674 4.31445 39.8027 4.64258 40.3594 5.29883C40.916 5.94922 41.1943 6.95703 41.1943 8.32227V11.917L42.3018 12.1982V14H37.2041V12.1982L38.1094 11.917V8.30469C38.1094 7.68359 38.0039 7.25879 37.793 7.03027C37.5879 6.7959 37.2891 6.67871 36.8965 6.67871C36.3281 6.67871 35.9062 6.875 35.6309 7.26758V11.917L36.5361 12.1982V14H31.4473Z" fill="#EDEEF1"/>
<path d="M47.5312 14.1846C46.5996 14.1846 45.7852 13.9854 45.0879 13.5869C44.3965 13.1826 43.8574 12.6318 43.4707 11.9346C43.0898 11.2373 42.8994 10.4492 42.8994 9.57031V9.24512C42.8994 8.27832 43.0693 7.42285 43.4092 6.67871C43.749 5.93457 44.2471 5.35449 44.9033 4.93848C45.5596 4.5166 46.3652 4.30859 47.3203 4.31445C48.6094 4.31445 49.5996 4.68652 50.291 5.43066C50.9824 6.16895 51.3281 7.23828 51.3281 8.63867V10.2295H46.0986L46.0898 10.291C46.1543 10.7363 46.3477 11.1055 46.6699 11.3984C46.9922 11.6914 47.4551 11.8379 48.0586 11.8379C48.8203 11.8379 49.6172 11.6475 50.4492 11.2666L51.1523 13.1299C50.7246 13.4346 50.2031 13.6865 49.5879 13.8857C48.9727 14.085 48.2871 14.1846 47.5312 14.1846ZM46.0986 8.32227H48.5156V8.09375C48.5156 7.58398 48.4365 7.2002 48.2783 6.94238C48.1201 6.67871 47.8242 6.54688 47.3906 6.54688C46.9219 6.54688 46.5938 6.71094 46.4062 7.03906C46.2246 7.36133 46.1104 7.77441 46.0635 8.27832L46.0986 8.32227Z" fill="#EDEEF1"/>
<path d="M52.7432 14V12.1982L53.8506 11.917V6.58203L52.5322 6.30078V4.49023H56.7598L56.8301 5.65039L56.8477 5.8877C57.2578 4.83887 57.9111 4.31445 58.8076 4.31445C58.9365 4.31445 59.0889 4.32617 59.2646 4.34961C59.4404 4.36719 59.6191 4.40234 59.8008 4.45508L59.4932 7.28516L58.1748 7.22363C57.8701 7.21191 57.6299 7.24707 57.4541 7.3291C57.2842 7.40527 57.1113 7.53418 56.9355 7.71582V11.917L58.043 12.1982V14H52.7432Z" fill="#EDEEF1"/>
<path d="M63.6152 14.1846C62.625 14.1846 61.8721 13.9443 61.3564 13.4639C60.8408 12.9775 60.583 12.2949 60.583 11.416C60.583 10.5137 60.9521 9.79004 61.6904 9.24512C62.4287 8.69434 63.4541 8.41895 64.7666 8.41895H66.4629V7.4873C66.4629 6.91309 66.2871 6.46777 65.9355 6.15137C65.5898 5.83496 65.1006 5.67676 64.4678 5.67676C64.0693 5.67676 63.7236 5.72656 63.4307 5.82617C63.1377 5.91992 62.8711 6.05176 62.6309 6.22168L62.4463 7.54883H61.1104V5.36914C61.9717 4.66602 63.0996 4.31445 64.4941 4.31445C65.6484 4.31445 66.5537 4.58984 67.21 5.14062C67.8662 5.69141 68.1943 6.47949 68.1943 7.50488V12.084C68.1943 12.207 68.1943 12.3271 68.1943 12.4443C68.2002 12.5615 68.209 12.6787 68.2207 12.7959L69.1436 12.8926V14H66.6562C66.5566 13.5195 66.4951 13.083 66.4717 12.6904C66.1377 13.1182 65.7188 13.4756 65.2148 13.7627C64.7168 14.0439 64.1836 14.1846 63.6152 14.1846ZM63.8701 12.7344C64.4443 12.7344 64.9688 12.5967 65.4434 12.3213C65.918 12.0459 66.2578 11.7148 66.4629 11.3281V9.60547H64.7051C63.9082 9.60547 63.3105 9.7959 62.9121 10.1768C62.5137 10.5576 62.3145 10.9824 62.3145 11.4512C62.3145 12.3066 62.833 12.7344 63.8701 12.7344Z" fill="#EDEEF1"/>
<path d="M70.4531 14V12.8926L71.8857 12.6465V5.77344H70.4004V4.49023H71.8857V3.28613C71.8857 2.27246 72.1494 1.49023 72.6768 0.939453C73.21 0.382812 73.9512 0.104492 74.9004 0.104492C75.0996 0.104492 75.3135 0.12207 75.542 0.157227C75.7764 0.186523 76.0166 0.230469 76.2627 0.289062L76.0518 1.60742C75.9463 1.58398 75.8027 1.56348 75.6211 1.5459C75.4453 1.52832 75.2783 1.51953 75.1201 1.51953C74.1182 1.51953 73.6172 2.1084 73.6172 3.28613V4.49023H75.6914V5.77344H73.6172V12.6465L75.252 12.8926V14H70.4531Z" fill="#EDEEF1"/>
<path d="M79.9453 14.1846C78.9551 14.1846 78.2021 13.9443 77.6865 13.4639C77.1709 12.9775 76.9131 12.2949 76.9131 11.416C76.9131 10.5137 77.2822 9.79004 78.0205 9.24512C78.7588 8.69434 79.7842 8.41895 81.0967 8.41895H82.793V7.4873C82.793 6.91309 82.6172 6.46777 82.2656 6.15137C81.9199 5.83496 81.4307 5.67676 80.7979 5.67676C80.3994 5.67676 80.0537 5.72656 79.7607 5.82617C79.4678 5.91992 79.2012 6.05176 78.9609 6.22168L78.7764 7.54883H77.4404V5.36914C78.3018 4.66602 79.4297 4.31445 80.8242 4.31445C81.9785 4.31445 82.8838 4.58984 83.54 5.14062C84.1963 5.69141 84.5244 6.47949 84.5244 7.50488V12.084C84.5244 12.207 84.5244 12.3271 84.5244 12.4443C84.5303 12.5615 84.5391 12.6787 84.5508 12.7959L85.4736 12.8926V14H82.9863C82.8867 13.5195 82.8252 13.083 82.8018 12.6904C82.4678 13.1182 82.0488 13.4756 81.5449 13.7627C81.0469 14.0439 80.5137 14.1846 79.9453 14.1846ZM80.2002 12.7344C80.7744 12.7344 81.2988 12.5967 81.7734 12.3213C82.248 12.0459 82.5879 11.7148 82.793 11.3281V9.60547H81.0352C80.2383 9.60547 79.6406 9.7959 79.2422 10.1768C78.8438 10.5576 78.6445 10.9824 78.6445 11.4512C78.6445 12.3066 79.1631 12.7344 80.2002 12.7344Z" fill="#EDEEF1"/>
<path d="M91.1514 14.1846C90.2725 14.1846 89.5078 13.9854 88.8574 13.5869C88.207 13.1826 87.7031 12.623 87.3457 11.9082C86.9941 11.1934 86.8184 10.3672 86.8184 9.42969V9.04297C86.8184 8.14062 87.0029 7.33496 87.3721 6.62598C87.7471 5.91113 88.2422 5.34863 88.8574 4.93848C89.4785 4.52246 90.1553 4.31445 90.8877 4.31445C92.165 4.31445 93.1318 4.70117 93.7881 5.47461C94.4502 6.24805 94.7812 7.2793 94.7812 8.56836V9.64941H88.6113L88.585 9.69336C88.6025 10.6074 88.834 11.3604 89.2793 11.9521C89.7246 12.5381 90.3486 12.8311 91.1514 12.8311C91.7373 12.8311 92.25 12.749 92.6895 12.585C93.1348 12.415 93.5186 12.1836 93.8408 11.8906L94.5176 13.0156C94.1777 13.3438 93.7266 13.6221 93.1641 13.8506C92.6074 14.0732 91.9365 14.1846 91.1514 14.1846ZM88.6641 8.2959H93.0498V8.06738C93.0498 7.3877 92.8682 6.81934 92.5049 6.3623C92.1416 5.90527 91.6025 5.67676 90.8877 5.67676C90.3076 5.67676 89.8125 5.92285 89.4023 6.41504C88.9922 6.90137 88.7402 7.51367 88.6465 8.25195L88.6641 8.2959Z" fill="#EDEEF1"/>
<path d="M96.0469 14V12.8926L97.4795 12.6465V1.65137L96.0469 1.40527V0.289062H99.2109V12.6465L100.644 12.8926V14H96.0469Z" fill="#EDEEF1"/>
</svg>
