<svg width="45" height="45" viewBox="0 0 45 45" fill="none" xmlns="http://www.w3.org/2000/svg">
<path d="M0 10C0 4.47715 4.47715 0 10 0H35C40.5228 0 45 4.47715 45 10V35C45 40.5228 40.5228 45 35 45H10C4.47715 45 0 40.5228 0 35V10Z" fill="#1F212B"/>
<path d="M15.5859 31V21.0625H13.7461V18.3203H15.5859V17.3125C15.5859 15.8672 16.0117 14.7461 16.8633 13.9492C17.7148 13.1523 18.9102 12.7539 20.4492 12.7539C21.0117 12.7539 21.6289 12.8359 22.3008 13L22.3125 15.9062C22.0703 15.8359 21.7461 15.8008 21.3398 15.8008C20.1445 15.8008 19.5469 16.3164 19.5469 17.3477V18.3203H22.0195V21.0625H19.5469V31H15.5859Z" fill="#EDEEF1"/>
<path d="M31.0781 21.8945L29.7773 21.8008C28.5352 21.8008 27.7383 22.1914 27.3867 22.9727V31H23.4375V18.3203H27.1406L27.2695 19.9492C27.9336 18.707 28.8594 18.0859 30.0469 18.0859C30.4688 18.0859 30.8359 18.1328 31.1484 18.2266L31.0781 21.8945Z" fill="#EDEEF1"/>
</svg>
